<svg width="14" height="13" viewBox="0 0 14 13" fill="none" xmlns="http://www.w3.org/2000/svg">
<path d="M7 13C6.80069 13 6.60854 12.9246 6.45879 12.7877C5.89322 12.2716 5.34795 11.7865 4.86687 11.3587L4.86441 11.3564C3.45396 10.1019 2.23599 9.01857 1.38855 7.95137C0.441238 6.7583 0 5.62711 0 4.39134C0 3.19069 0.394455 2.08302 1.11063 1.27222C1.83534 0.451832 2.82976 0 3.91101 0C4.71915 0 5.45924 0.266662 6.11069 0.792517C6.43945 1.05795 6.73746 1.38281 7 1.76173C7.26265 1.38281 7.56055 1.05795 7.88942 0.792517C8.54086 0.266662 9.28096 0 10.0891 0C11.1702 0 12.1648 0.451832 12.8895 1.27222C13.6057 2.08302 14 3.19069 14 4.39134C14 5.62711 13.5589 6.7583 12.6116 7.95126C11.7641 9.01857 10.5462 10.1018 9.13602 11.3562C8.65408 11.7847 8.10796 12.2706 7.54111 12.788C7.39146 12.9246 7.1992 13 7 13ZM3.91101 0.85595C3.06154 0.85595 2.28117 1.20979 1.71347 1.85237C1.13733 2.50464 0.819992 3.4063 0.819992 4.39134C0.819992 5.43068 1.19009 6.3602 2.01991 7.40522C2.82196 8.41535 4.01494 9.47643 5.39622 10.7051L5.39879 10.7073C5.88168 11.1368 6.42909 11.6238 6.99883 12.1437C7.57198 11.6228 8.12024 11.135 8.6041 10.7048C9.98528 9.4762 11.1781 8.41535 11.9802 7.40522C12.8099 6.3602 13.18 5.43068 13.18 4.39134C13.18 3.4063 12.8627 2.50464 12.2865 1.85237C11.7189 1.20979 10.9385 0.85595 10.0891 0.85595C9.46681 0.85595 8.89548 1.06241 8.39101 1.46954C7.94144 1.83252 7.62827 2.29138 7.44466 2.61244C7.35023 2.77754 7.18404 2.87609 7 2.87609C6.81596 2.87609 6.64977 2.77754 6.55534 2.61244C6.37184 2.29138 6.05867 1.83252 5.60899 1.46954C5.10452 1.06241 4.53319 0.85595 3.91101 0.85595Z" fill="white"/>
</svg>
